<?xml version="1.0" encoding="UTF-8"?>
<!DOCTYPE svg PUBLIC "-//W3C//DTD SVG 1.1//EN" "http://www.w3.org/Graphics/SVG/1.1/DTD/svg11.dtd">
<!-- Creator: CorelDRAW 2019 (64 Bit) -->
<svg xmlns="http://www.w3.org/2000/svg" xml:space="preserve" width="7.7918mm" height="4.6098mm" version="1.1" style="shape-rendering:geometricPrecision; text-rendering:geometricPrecision; image-rendering:optimizeQuality; fill-rule:evenodd; clip-rule:evenodd"
viewBox="0 0 84.63 50.07"
 xmlns:xlink="http://www.w3.org/1999/xlink"
 xmlns:xodm="http://www.corel.com/coreldraw/odm/2003">
 <defs>
  <style type="text/css">
   <![CDATA[
    .str0 {stroke:#FEFEFE;stroke-width:1.09;stroke-miterlimit:22.9256}
    .fil0 {fill:none}
    .fil1 {fill:#FEFEFE}
   ]]>
  </style>
 </defs>
 <g id="Camada_x0020_1">
  <metadata id="CorelCorpID_0Corel-Layer"/>
  <g id="_2553913226816">
   <path class="fil0 str0" d="M6.06 0.54l72.51 0c3.03,0 5.52,2.48 5.52,5.52l0 3.69 -83.55 0 0 -3.69c0,-3.03 2.48,-5.52 5.52,-5.52zm78.03 19.98l0 23.49c0,3.03 -2.48,5.52 -5.52,5.52l-72.51 0c-3.03,0 -5.52,-2.48 -5.52,-5.52l0 -23.49 83.55 0z"/>
   <rect class="fil1" x="61.21" y="32.71" width="17.54" height="11.62" rx="1.36" ry="1.31"/>
   <rect class="fil1" x="4.88" y="40.02" width="34.01" height="4.31"/>
   <rect class="fil1" x="4.88" y="28.43" width="34.01" height="4.31"/>
  </g>
 </g>
</svg>
