<?xml version="1.0" encoding="UTF-8"?>
<!DOCTYPE svg PUBLIC "-//W3C//DTD SVG 1.1//EN" "http://www.w3.org/Graphics/SVG/1.1/DTD/svg11.dtd">
<!-- Creator: CorelDRAW 2019 (64 Bit) -->
<svg xmlns="http://www.w3.org/2000/svg" xml:space="preserve" width="6.0708mm" height="6.0708mm" version="1.1" style="shape-rendering:geometricPrecision; text-rendering:geometricPrecision; image-rendering:optimizeQuality; fill-rule:evenodd; clip-rule:evenodd"
viewBox="0 0 26.79 26.79"
 xmlns:xlink="http://www.w3.org/1999/xlink"
 xmlns:xodm="http://www.corel.com/coreldraw/odm/2003">
 <defs>
  <style type="text/css">
   <![CDATA[
    .str0 {stroke:#FEFEFE;stroke-width:0.44;stroke-miterlimit:22.9256}
    .fil0 {fill:none}
   ]]>
  </style>
 </defs>
 <g id="Camada_x0020_1">
  <metadata id="CorelCorpID_0Corel-Layer"/>
  <path class="fil0 str0" d="M21.37 20.52l-4.7 4.7c-1.81,1.81 -4.76,1.81 -6.57,0l-4.69 -4.69c0.87,-0.01 1.62,-0.11 2.24,-0.32 0.65,-0.21 1.15,-0.53 1.52,-0.96l3.79 -3.85c0.19,-0.16 0.39,-0.25 0.58,-0.25 0.19,0 0.38,0.08 0.58,0.25l3.79 3.85c0.37,0.43 0.87,0.75 1.52,0.96 0.55,0.18 1.2,0.28 1.95,0.31zm-15.97 -14.23l4.71 -4.71c1.81,-1.81 4.76,-1.81 6.57,0l4.72 4.72c-0.76,0.03 -1.42,0.13 -1.97,0.31 -0.65,0.21 -1.15,0.53 -1.52,0.96l-3.79 3.85c-0.19,0.16 -0.39,0.25 -0.58,0.25 -0.19,-0 -0.38,-0.08 -0.58,-0.25l-3.79 -3.85c-0.37,-0.43 -0.87,-0.75 -1.52,-0.96 -0.62,-0.21 -1.38,-0.31 -2.26,-0.32zm-3.83 3.83l2.19 -2.19c1.68,-0.27 2.78,-0.17 3.57,0.11 0.8,0.28 1.27,0.74 1.71,1.16l-0 0c2.76,2.79 3.64,3.48 3.64,3.48l0 0c0.11,0.08 0.26,0.14 0.42,0.19 0.16,0.05 0.34,0.07 0.49,0.07 0.15,0 0.32,-0.03 0.47,-0.07 0.15,-0.05 0.3,-0.11 0.41,-0.19l0 -0c0,-0 0.88,-0.69 3.64,-3.48l0 -0c0.43,-0.42 0.91,-0.88 1.71,-1.16 0.72,-0.25 1.7,-0.36 3.15,-0.17l2.25 2.25c1.81,1.81 1.81,4.76 0,6.57l-2.29 2.29c-1.43,0.18 -2.4,0.07 -3.11,-0.18 -0.8,-0.28 -1.28,-0.74 -1.71,-1.16l0 0c-2.76,-2.79 -3.64,-3.48 -3.64,-3.48l-0 -0c-0.11,-0.08 -0.25,-0.14 -0.41,-0.19 -0.16,-0.05 -0.32,-0.07 -0.47,-0.07 -0.15,0 -0.32,0.03 -0.49,0.07 -0.16,0.05 -0.31,0.11 -0.42,0.19l-0 0c-0,0 -0.88,0.69 -3.64,3.48l0 0c-0.43,0.42 -0.91,0.88 -1.71,1.16 -0.78,0.28 -1.88,0.38 -3.54,0.12l-2.23 -2.23c-1.81,-1.81 -1.81,-4.76 0,-6.57z"/>
 </g>
</svg>
